<svg width="127" height="35" viewBox="0 0 127 35" fill="none" xmlns="http://www.w3.org/2000/svg">
<path d="M15.7521 0.0159912V0.97599C14.6641 1.00799 13.8321 1.13599 13.2561 1.35999C12.7121 1.55199 12.3441 1.93599 12.1521 2.51199C11.9601 3.05599 11.8641 3.91999 11.8641 5.10399V29.488C11.8641 30.48 11.9281 31.216 12.0561 31.696C12.2161 32.176 12.5041 32.496 12.9201 32.656C13.3681 32.816 14.0241 32.896 14.8881 32.896H17.2401C18.3281 32.896 19.3521 32.64 20.3121 32.128C21.2721 31.616 22.1361 30.896 22.9041 29.968C23.6721 29.008 24.3121 27.872 24.8241 26.56C25.3361 25.248 25.7201 23.792 25.9761 22.192H27.0801C26.9841 23.28 26.9361 24.688 26.9361 26.416C26.9361 27.152 26.9521 28.224 26.9841 29.632C27.0161 31.04 27.1121 32.496 27.2721 34C25.6401 33.936 23.8001 33.904 21.7521 33.904C19.7041 33.872 17.8801 33.856 16.2801 33.856C15.4801 33.856 14.4561 33.856 13.2081 33.856C11.9601 33.856 10.6161 33.872 9.17608 33.904C7.73608 33.904 6.28008 33.92 4.80808 33.952C3.33608 33.952 1.94408 33.968 0.63208 34V33.04C1.65608 32.976 2.42408 32.848 2.93608 32.656C3.44808 32.464 3.78408 32.08 3.94408 31.504C4.13608 30.928 4.23208 30.064 4.23208 28.912V5.10399C4.23208 3.91999 4.13608 3.05599 3.94408 2.51199C3.78408 1.93599 3.43208 1.55199 2.88808 1.35999C2.37608 1.13599 1.62408 1.00799 0.63208 0.97599V0.0159912C1.43208 0.0479908 2.50408 0.0799904 3.84808 0.11199C5.22408 0.14399 6.68008 0.159989 8.21608 0.159989C9.62408 0.159989 11.0001 0.14399 12.3441 0.11199C13.7201 0.0799904 14.8561 0.0479908 15.7521 0.0159912Z" fill="#141414"/>
<path d="M53.3998 8.65599V28.768C53.3998 30.208 53.6238 31.28 54.0718 31.984C54.5198 32.656 55.3198 32.992 56.4718 32.992V34C55.4798 33.904 54.4878 33.856 53.4958 33.856C52.1518 33.856 50.9038 33.904 49.7518 34C48.5998 34.096 47.5118 34.272 46.4878 34.528V30.208C45.7198 31.808 44.6478 32.96 43.2718 33.664C41.9278 34.336 40.4238 34.672 38.7598 34.672C37.4158 34.672 36.3278 34.496 35.4958 34.144C34.6638 33.792 34.0078 33.344 33.5278 32.8C32.9838 32.192 32.5998 31.392 32.3758 30.4C32.1518 29.408 32.0398 28.128 32.0398 26.56V14.416C32.0398 12.976 31.8158 11.92 31.3678 11.248C30.9518 10.544 30.1518 10.192 28.9678 10.192V9.18399C29.9918 9.27999 30.9838 9.32799 31.9438 9.32799C33.2878 9.32799 34.5358 9.27999 35.6878 9.18399C36.8718 9.05599 37.9598 8.87999 38.9518 8.65599V28.528C38.9518 29.328 39.0158 30.032 39.1438 30.64C39.3038 31.248 39.5918 31.728 40.0078 32.08C40.4238 32.4 41.0318 32.56 41.8318 32.56C42.6958 32.56 43.4638 32.32 44.1358 31.84C44.8398 31.36 45.3998 30.704 45.8158 29.872C46.2638 29.008 46.4878 28.048 46.4878 26.992V14.416C46.4878 12.976 46.2638 11.92 45.8158 11.248C45.3998 10.544 44.5998 10.192 43.4158 10.192V9.18399C44.4398 9.27999 45.4318 9.32799 46.3918 9.32799C47.7358 9.32799 48.9838 9.27999 50.1358 9.18399C51.3198 9.05599 52.4078 8.87999 53.3998 8.65599Z" fill="#141414"/>
<path d="M71.0852 8.51199C72.3332 8.51199 73.4692 8.65599 74.4932 8.94399C75.5492 9.19999 76.4132 9.53599 77.0852 9.95199C77.9172 10.464 78.5572 11.104 79.0052 11.872C79.4852 12.608 79.7252 13.472 79.7252 14.464C79.7252 15.584 79.3732 16.512 78.6692 17.248C77.9652 17.952 77.0532 18.304 75.9332 18.304C74.8132 18.304 73.9172 17.984 73.2452 17.344C72.5732 16.704 72.2372 15.84 72.2372 14.752C72.2372 13.728 72.5572 12.88 73.1972 12.208C73.8372 11.504 74.5732 11.04 75.4052 10.816C75.1492 10.496 74.7652 10.224 74.2532 9.99999C73.7412 9.77599 73.1652 9.66399 72.5252 9.66399C71.5332 9.66399 70.6532 9.95199 69.8852 10.528C69.1492 11.104 68.5252 11.904 68.0132 12.928C67.5012 13.952 67.1012 15.152 66.8132 16.528C66.5572 17.904 66.4292 19.408 66.4292 21.04C66.4292 23.504 66.7332 25.44 67.3412 26.848C67.9812 28.256 68.7812 29.248 69.7412 29.824C70.7332 30.4 71.7572 30.688 72.8132 30.688C73.4212 30.688 74.0772 30.592 74.7812 30.4C75.5172 30.208 76.2532 29.824 76.9892 29.248C77.7572 28.672 78.4612 27.856 79.1012 26.8L79.9172 27.088C79.5652 28.272 78.9892 29.456 78.1892 30.64C77.3892 31.824 76.3492 32.8 75.0692 33.568C73.7892 34.304 72.2212 34.672 70.3652 34.672C68.2852 34.672 66.3972 34.224 64.7012 33.328C63.0372 32.4 61.6932 30.992 60.6692 29.104C59.6772 27.184 59.1812 24.72 59.1812 21.712C59.1812 18.832 59.6932 16.416 60.7172 14.464C61.7732 12.48 63.1972 10.992 64.9892 9.99999C66.7812 9.00799 68.8132 8.51199 71.0852 8.51199Z" fill="#141414"/>
<path d="M89.0417 34.336C87.6017 34.336 86.4017 34.064 85.4417 33.52C84.4817 32.976 83.7777 32.256 83.3297 31.36C82.8817 30.432 82.6577 29.424 82.6577 28.336C82.6577 26.96 82.9617 25.84 83.5697 24.976C84.2097 24.112 85.0257 23.408 86.0177 22.864C87.0097 22.32 88.0497 21.872 89.1377 21.52C90.2577 21.168 91.3137 20.832 92.3057 20.512C93.3297 20.16 94.1457 19.76 94.7537 19.312C95.3937 18.832 95.7137 18.224 95.7137 17.488V13.744C95.7137 12.912 95.5697 12.176 95.2817 11.536C95.0257 10.864 94.6097 10.352 94.0337 9.99999C93.4897 9.64799 92.7697 9.47199 91.8737 9.47199C91.2337 9.47199 90.5937 9.56799 89.9537 9.75999C89.3137 9.91999 88.7857 10.208 88.3697 10.624C89.2657 10.944 89.9537 11.44 90.4337 12.112C90.9457 12.752 91.2017 13.488 91.2017 14.32C91.2017 15.408 90.8177 16.272 90.0497 16.912C89.3137 17.552 88.4337 17.872 87.4097 17.872C86.2577 17.872 85.3777 17.52 84.7697 16.816C84.1937 16.08 83.9057 15.2 83.9057 14.176C83.9057 13.248 84.1297 12.48 84.5777 11.872C85.0577 11.264 85.7137 10.688 86.5457 10.144C87.4417 9.63199 88.5137 9.23199 89.7617 8.94399C91.0417 8.65599 92.4177 8.51199 93.8897 8.51199C95.3617 8.51199 96.6897 8.67199 97.8737 8.99199C99.0577 9.27999 100.05 9.82399 100.85 10.624C101.586 11.36 102.066 12.272 102.29 13.36C102.514 14.416 102.626 15.76 102.626 17.392V30.448C102.626 31.248 102.706 31.808 102.866 32.128C103.026 32.416 103.298 32.56 103.682 32.56C103.97 32.56 104.242 32.48 104.498 32.32C104.786 32.16 105.09 31.968 105.41 31.744L105.89 32.56C105.218 33.136 104.434 33.584 103.538 33.904C102.674 34.192 101.698 34.336 100.61 34.336C99.4257 34.336 98.4817 34.176 97.7777 33.856C97.0737 33.504 96.5617 33.04 96.2417 32.464C95.9537 31.888 95.8097 31.216 95.8097 30.448C95.0417 31.664 94.1137 32.624 93.0257 33.328C91.9377 34 90.6097 34.336 89.0417 34.336ZM92.4497 31.264C93.0897 31.264 93.6657 31.12 94.1777 30.832C94.7217 30.512 95.2337 30 95.7137 29.296V19.456C95.4257 19.936 95.0257 20.368 94.5137 20.752C94.0017 21.136 93.4577 21.536 92.8817 21.952C92.3057 22.336 91.7457 22.768 91.2017 23.248C90.6897 23.728 90.2737 24.32 89.9537 25.024C89.6337 25.728 89.4737 26.576 89.4737 27.568C89.4737 28.816 89.7457 29.744 90.2897 30.352C90.8337 30.96 91.5537 31.264 92.4497 31.264Z" fill="#141414"/>
<path d="M116.765 8.51199C118.109 8.51199 119.277 8.68799 120.269 9.03999C121.293 9.35999 122.029 9.67999 122.477 9.99999C123.565 10.736 124.237 10.256 124.493 8.55999H125.501C125.437 9.45599 125.389 10.56 125.357 11.872C125.325 13.152 125.309 14.864 125.309 17.008H124.301C124.141 15.824 123.837 14.656 123.389 13.504C122.941 12.352 122.285 11.408 121.421 10.672C120.589 9.93599 119.501 9.56799 118.157 9.56799C117.229 9.56799 116.445 9.83999 115.805 10.384C115.165 10.896 114.845 11.648 114.845 12.64C114.845 13.6 115.133 14.448 115.709 15.184C116.285 15.888 117.021 16.576 117.917 17.248C118.845 17.888 119.805 18.576 120.797 19.312C121.853 20.112 122.813 20.912 123.677 21.712C124.541 22.48 125.229 23.328 125.741 24.256C126.253 25.184 126.509 26.288 126.509 27.568C126.509 29.008 126.093 30.272 125.261 31.36C124.429 32.416 123.325 33.232 121.949 33.808C120.605 34.384 119.101 34.672 117.437 34.672C116.477 34.672 115.613 34.576 114.845 34.384C114.109 34.192 113.469 33.952 112.925 33.664C112.509 33.472 112.109 33.296 111.725 33.136C111.373 32.944 111.037 32.784 110.717 32.656C110.397 32.56 110.109 32.672 109.853 32.992C109.629 33.312 109.453 33.76 109.325 34.336H108.317C108.381 33.312 108.429 32.064 108.461 30.592C108.493 29.12 108.509 27.168 108.509 24.736H109.517C109.709 26.464 110.061 28 110.573 29.344C111.085 30.656 111.773 31.696 112.637 32.464C113.533 33.2 114.653 33.568 115.997 33.568C116.541 33.568 117.069 33.456 117.581 33.232C118.093 33.008 118.509 32.64 118.829 32.128C119.181 31.616 119.357 30.96 119.357 30.16C119.357 28.752 118.893 27.584 117.965 26.656C117.069 25.728 115.917 24.72 114.509 23.632C113.485 22.8 112.509 21.984 111.581 21.184C110.685 20.352 109.949 19.456 109.373 18.496C108.797 17.504 108.509 16.384 108.509 15.136C108.509 13.696 108.893 12.48 109.661 11.488C110.429 10.496 111.437 9.75999 112.685 9.27999C113.965 8.76799 115.325 8.51199 116.765 8.51199Z" fill="#141414"/>
</svg>
